<svg xmlns="http://www.w3.org/2000/svg" width="980" height="560" viewBox="0 0 980 560">
  <rect width="980" height="560" rx="28" fill="#0f172a"/>
  <text x="48" y="58" fill="#f8fafc" font-family="Segoe UI, Arial" font-size="30" font-weight="700">RCC-N Effectiveness Metrics</text>
  <text x="48" y="88" fill="#cbd5e1" font-family="Segoe UI, Arial" font-size="15">Repository orientation, validation linkage, mini README coverage, and navigation discipline</text>

  <rect x="48" y="105" width="884" height="1" fill="#334155"/>

  <text x="60" y="168" fill="#cbd5e1" font-family="Segoe UI, Arial" font-size="14">Context</text><rect x="190" y="150" width="520" height="24" rx="8" fill="#1e293b"/><rect x="190" y="150" width="520" height="24" rx="8" fill="#38bdf8"/><text x="730" y="168" fill="#f8fafc" font-family="Segoe UI, Arial" font-size="14">1.00</text><text x="60" y="210" fill="#cbd5e1" font-family="Segoe UI, Arial" font-size="14">Validation</text><rect x="190" y="192" width="520" height="24" rx="8" fill="#1e293b"/><rect x="190" y="192" width="520" height="24" rx="8" fill="#38bdf8"/><text x="730" y="210" fill="#f8fafc" font-family="Segoe UI, Arial" font-size="14">1.00</text><text x="60" y="252" fill="#cbd5e1" font-family="Segoe UI, Arial" font-size="14">Evidence</text><rect x="190" y="234" width="520" height="24" rx="8" fill="#1e293b"/><rect x="190" y="234" width="520" height="24" rx="8" fill="#38bdf8"/><text x="730" y="252" fill="#f8fafc" font-family="Segoe UI, Arial" font-size="14">1.00</text><text x="60" y="294" fill="#cbd5e1" font-family="Segoe UI, Arial" font-size="14">README</text><rect x="190" y="276" width="520" height="24" rx="8" fill="#1e293b"/><rect x="190" y="276" width="462" height="24" rx="8" fill="#38bdf8"/><text x="730" y="294" fill="#f8fafc" font-family="Segoe UI, Arial" font-size="14">0.89</text><text x="60" y="336" fill="#cbd5e1" font-family="Segoe UI, Arial" font-size="14">Routes</text><rect x="190" y="318" width="520" height="24" rx="8" fill="#1e293b"/><rect x="190" y="318" width="520" height="24" rx="8" fill="#38bdf8"/><text x="730" y="336" fill="#f8fafc" font-family="Segoe UI, Arial" font-size="14">1.00</text><text x="60" y="378" fill="#cbd5e1" font-family="Segoe UI, Arial" font-size="14">Mini READMEs</text><rect x="190" y="360" width="520" height="24" rx="8" fill="#1e293b"/><rect x="190" y="360" width="520" height="24" rx="8" fill="#38bdf8"/><text x="730" y="378" fill="#f8fafc" font-family="Segoe UI, Arial" font-size="14">1.00</text><text x="60" y="420" fill="#cbd5e1" font-family="Segoe UI, Arial" font-size="14">NCI</text><rect x="190" y="402" width="520" height="24" rx="8" fill="#1e293b"/><rect x="190" y="402" width="520" height="24" rx="8" fill="#38bdf8"/><text x="730" y="420" fill="#f8fafc" font-family="Segoe UI, Arial" font-size="14">1.00</text>

  <g transform="translate(60,470)">
    <text x="0" y="0" fill="#f8fafc" font-family="Segoe UI, Arial" font-size="18" font-weight="700">Overall</text>
    <text x="0" y="34" fill="#38bdf8" font-family="Segoe UI, Arial" font-size="28" font-weight="700">RCC-N 0.98</text>
    <text x="220" y="34" fill="#94a3b8" font-family="Segoe UI, Arial" font-size="28" font-weight="700">Regular README 0.11</text>
    <text x="560" y="34" fill="#86efac" font-family="Segoe UI, Arial" font-size="28" font-weight="700">Lift +0.88</text>
  </g>

  <text x="48" y="540" fill="#94a3b8" font-family="Segoe UI, Arial" font-size="12">Boundary: RCC-N metrics measure navigation and context discipline, not code correctness, empirical validation, causality, mechanism, AI understanding, production readiness, or GMN replication.</text>
</svg>