<svg xmlns="http://www.w3.org/2000/svg" width="980" height="430">
  <rect width="100%" height="100%" fill="white"/>
  <text x="24" y="32" font-family="Arial" font-size="22" font-weight="bold">OMN-SA v0.9.2 Public Metrics Dashboard</text>
  <text x="24" y="54" font-family="Arial" font-size="13">Repository orientation, evidence continuity, deterministic execution, and non-claim-governed validation surfaces.</text>
  <text x="24" y="80" font-family="Arial" font-size="15">Tests</text><rect x="230" y="60" width="650" height="28" fill="#eeeeee" stroke="#999999"/><rect x="230" y="60" width="650.00" height="28" fill="#222222"/><text x="898" y="80" font-family="Arial" font-size="14">100.0%</text><text x="24" y="128" font-family="Arial" font-size="15">Mini READMEs</text><rect x="230" y="108" width="650" height="28" fill="#eeeeee" stroke="#999999"/><rect x="230" y="108" width="650.00" height="28" fill="#222222"/><text x="898" y="128" font-family="Arial" font-size="14">100.0%</text><text x="24" y="176" font-family="Arial" font-size="15">RCC-N Score</text><rect x="230" y="156" width="650" height="28" fill="#eeeeee" stroke="#999999"/><rect x="230" y="156" width="638.44" height="28" fill="#222222"/><text x="898" y="176" font-family="Arial" font-size="14">98.2%</text><text x="24" y="224" font-family="Arial" font-size="15">RCC-N Lift</text><rect x="230" y="204" width="650" height="28" fill="#eeeeee" stroke="#999999"/><rect x="230" y="204" width="568.89" height="28" fill="#222222"/><text x="898" y="224" font-family="Arial" font-size="14">87.5%</text><text x="24" y="272" font-family="Arial" font-size="15">Replay Artifacts</text><rect x="230" y="252" width="650" height="28" fill="#eeeeee" stroke="#999999"/><rect x="230" y="252" width="650.00" height="28" fill="#222222"/><text x="898" y="272" font-family="Arial" font-size="14">100.0%</text><text x="24" y="320" font-family="Arial" font-size="15">Missing Artifacts</text><rect x="230" y="300" width="650" height="28" fill="#eeeeee" stroke="#999999"/><rect x="230" y="300" width="650.00" height="28" fill="#222222"/><text x="898" y="320" font-family="Arial" font-size="14">100.0%</text><text x="24" y="368" font-family="Arial" font-size="15">Metric Availability</text><rect x="230" y="348" width="650" height="28" fill="#eeeeee" stroke="#999999"/><rect x="230" y="348" width="650.00" height="28" fill="#222222"/><text x="898" y="368" font-family="Arial" font-size="14">100.0%</text><text x="24" y="416" font-family="Arial" font-size="15">Evidence Index</text><rect x="230" y="396" width="650" height="28" fill="#eeeeee" stroke="#999999"/><rect x="230" y="396" width="650.00" height="28" fill="#222222"/><text x="898" y="416" font-family="Arial" font-size="14">100.0%</text>
  <text x="24" y="408" font-family="Arial" font-size="12">Boundary: dashboard metrics summarize repository governance and runtime evidence surfaces; they do not prove causality, mechanism, empirical validation, production readiness, AI understanding, or GMN replication.</text>
</svg>