<svg xmlns="http://www.w3.org/2000/svg" width="980" height="455">
  <rect width="100%" height="100%" fill="white"/>
  <text x="24" y="32" font-family="Arial" font-size="22" font-weight="bold">OMN-SA Current Public Metrics Dashboard</text>
  <text x="24" y="54" font-family="Arial" font-size="13">Repository orientation, evidence continuity, deterministic execution, release sealing, and non-claim-governed validation surfaces.</text>
  <text x="24" y="88" font-family="Arial" font-size="15">Tests</text><rect x="230" y="68" width="650" height="28" fill="#eeeeee" stroke="#999999"/><rect x="230" y="68" width="650" height="28" fill="#222222"/><text x="898" y="88" font-family="Arial" font-size="14">67 OK</text>
  <text x="24" y="136" font-family="Arial" font-size="15">Mini READMEs</text><rect x="230" y="116" width="650" height="28" fill="#eeeeee" stroke="#999999"/><rect x="230" y="116" width="650" height="28" fill="#222222"/><text x="898" y="136" font-family="Arial" font-size="14">37/37</text>
  <text x="24" y="184" font-family="Arial" font-size="15">RCC-N Score</text><rect x="230" y="164" width="650" height="28" fill="#eeeeee" stroke="#999999"/><rect x="230" y="164" width="638.44" height="28" fill="#222222"/><text x="898" y="184" font-family="Arial" font-size="14">0.9822</text>
  <text x="24" y="232" font-family="Arial" font-size="15">RCC-N Lift</text><rect x="230" y="212" width="650" height="28" fill="#eeeeee" stroke="#999999"/><rect x="230" y="212" width="568.89" height="28" fill="#222222"/><text x="898" y="232" font-family="Arial" font-size="14">+0.8752</text>
  <text x="24" y="280" font-family="Arial" font-size="15">Evidence Index</text><rect x="230" y="260" width="650" height="28" fill="#eeeeee" stroke="#999999"/><rect x="230" y="260" width="650" height="28" fill="#222222"/><text x="898" y="280" font-family="Arial" font-size="14">passed</text>
  <text x="24" y="328" font-family="Arial" font-size="15">Registry Checker</text><rect x="230" y="308" width="650" height="28" fill="#eeeeee" stroke="#999999"/><rect x="230" y="308" width="650" height="28" fill="#222222"/><text x="898" y="328" font-family="Arial" font-size="14">passed</text>
  <text x="24" y="376" font-family="Arial" font-size="15">Release Seal</text><rect x="230" y="356" width="650" height="28" fill="#eeeeee" stroke="#999999"/><rect x="230" y="356" width="650" height="28" fill="#222222"/><text x="898" y="376" font-family="Arial" font-size="14">passed</text>
  <text x="24" y="430" font-family="Arial" font-size="12">Boundary: dashboard metrics summarize repository governance and runtime evidence surfaces; they do not prove causality, mechanism, empirical validation, production readiness, AI understanding, or GMN replication.</text>
</svg>